<svg width="40" height="40" viewBox="0 0 40 40" fill="none" xmlns="http://www.w3.org/2000/svg">
<rect width="40" height="40" rx="20" fill="#58C27D"/>
<path d="M20.1596 19.62C20.1296 19.62 20.1096 19.62 20.0796 19.62C20.0296 19.61 19.9596 19.61 19.8996 19.62C16.9996 19.53 14.8096 17.25 14.8096 14.44C14.8096 11.58 17.1396 9.25 19.9996 9.25C22.8596 9.25 25.1896 11.58 25.1896 14.44C25.1796 17.25 22.9796 19.53 20.1896 19.62C20.1796 19.62 20.1696 19.62 20.1596 19.62ZM19.9996 10.75C17.9696 10.75 16.3096 12.41 16.3096 14.44C16.3096 16.44 17.8696 18.05 19.8596 18.12C19.9096 18.11 20.0496 18.11 20.1796 18.12C22.1396 18.03 23.6796 16.42 23.6896 14.44C23.6896 12.41 22.0296 10.75 19.9996 10.75Z" fill="white"/>
<path d="M20.1696 30.55C18.2096 30.55 16.2396 30.05 14.7496 29.05C13.3596 28.13 12.5996 26.87 12.5996 25.5C12.5996 24.13 13.3596 22.86 14.7496 21.93C17.7496 19.94 22.6096 19.94 25.5896 21.93C26.9696 22.85 27.7396 24.11 27.7396 25.48C27.7396 26.85 26.9796 28.12 25.5896 29.05C24.0896 30.05 22.1296 30.55 20.1696 30.55ZM15.5796 23.19C14.6196 23.83 14.0996 24.65 14.0996 25.51C14.0996 26.36 14.6296 27.18 15.5796 27.81C18.0696 29.48 22.2696 29.48 24.7596 27.81C25.7196 27.17 26.2396 26.35 26.2396 25.49C26.2396 24.64 25.7096 23.82 24.7596 23.19C22.2696 21.53 18.0696 21.53 15.5796 23.19Z" fill="white"/>
</svg>
