<svg width="32" height="33" viewBox="0 0 32 33" fill="none" xmlns="http://www.w3.org/2000/svg">
<path d="M15.9997 30.8331C15.1997 30.8331 14.413 30.6464 13.773 30.2864L7.46635 26.6464C4.85302 24.8864 4.67969 24.5664 4.67969 21.8064V15.1931C4.67969 12.4331 4.85302 12.1131 7.41302 10.3931L13.7864 6.71309C15.053 5.97975 16.9597 5.97975 18.2264 6.71309L24.533 10.3531C27.1464 12.1131 27.3197 12.4331 27.3197 15.1931V21.8064C27.3197 24.5664 27.1464 24.8864 24.5864 26.6064L18.213 30.2864C17.5864 30.6598 16.7864 30.8331 15.9997 30.8331ZM15.9997 8.16642C15.5464 8.16642 15.093 8.25975 14.773 8.44642L8.46635 12.0864C6.67969 13.2998 6.67969 13.2998 6.67969 15.1931V21.8064C6.67969 23.6998 6.67969 23.6998 8.53302 24.9531L14.7864 28.5531C15.4264 28.9264 16.5864 28.9264 17.2264 28.5531L23.533 24.9131C25.3197 23.6998 25.3197 23.6998 25.3197 21.8064V15.1931C25.3197 13.2998 25.3197 13.2998 23.4664 12.0464L17.213 8.44642C16.9064 8.25975 16.453 8.16642 15.9997 8.16642Z" fill="#09080D"/>
<path d="M23.3332 11.6732C22.7865 11.6732 22.3332 11.2198 22.3332 10.6732V7.1665C22.3332 5.05984 21.4398 4.1665 19.3332 4.1665H12.6665C10.5598 4.1665 9.6665 5.05984 9.6665 7.1665V10.5798C9.6665 11.1265 9.21317 11.5798 8.6665 11.5798C8.11984 11.5798 7.6665 11.1398 7.6665 10.5798V7.1665C7.6665 3.93984 9.43984 2.1665 12.6665 2.1665H19.3332C22.5598 2.1665 24.3332 3.93984 24.3332 7.1665V10.6732C24.3332 11.2198 23.8798 11.6732 23.3332 11.6732Z" fill="#09080D"/>
<path d="M18.1732 24.0068C17.8932 24.0068 17.5999 23.9535 17.3066 23.8335L15.9999 23.3268L14.6932 23.8468C13.9866 24.1268 13.2666 24.0602 12.7332 23.6735C12.1999 23.2868 11.9199 22.6202 11.9599 21.8602L12.0399 20.4602L11.1466 19.3802C10.6666 18.7802 10.5066 18.0868 10.7199 17.4468C10.9199 16.8202 11.4666 16.3402 12.1999 16.1535L13.5599 15.8068L14.3199 14.6202C15.1332 13.3402 16.8799 13.3402 17.6932 14.6202L18.4532 15.8068L19.8132 16.1535C20.5466 16.3402 21.0932 16.8202 21.2932 17.4468C21.4932 18.0735 21.3332 18.7802 20.8532 19.3668L19.9599 20.4468L20.0399 21.8468C20.0799 22.6068 19.7999 23.2602 19.2666 23.6602C18.9466 23.8868 18.5732 24.0068 18.1732 24.0068ZM12.6932 18.1002L13.5866 19.1802C13.8932 19.5402 14.0666 20.1135 14.0399 20.5802L13.9599 21.9802L15.2666 21.4602C15.7066 21.2868 16.2932 21.2868 16.7332 21.4602L18.0399 21.9802L17.9599 20.5802C17.9332 20.1135 18.1066 19.5535 18.4132 19.1802L19.3066 18.1002L17.9466 17.7535C17.4932 17.6335 17.0132 17.2868 16.7599 16.9002L16.0132 15.7268L15.2532 16.9002C14.9999 17.3002 14.5199 17.6468 14.0666 17.7668L12.6932 18.1002Z" fill="#09080D"/>
</svg>
