<svg width="48" height="48" viewBox="0 0 48 48" fill="none" xmlns="http://www.w3.org/2000/svg">
<path d="M23.9399 4C12.8999 4 3.93994 12.96 3.93994 24C3.93994 35.04 12.8999 44 23.9399 44C34.9799 44 43.9399 35.04 43.9399 24C43.9399 12.96 34.9999 4 23.9399 4ZM29.9399 28.46L24.1399 31.8C23.4199 32.22 22.6199 32.42 21.8399 32.42C21.0399 32.42 20.2599 32.22 19.5399 31.8C18.0999 30.96 17.2399 29.48 17.2399 27.8V21.1C17.2399 19.44 18.0999 17.94 19.5399 17.1C20.9799 16.26 22.6999 16.26 24.1599 17.1L29.9599 20.44C31.3999 21.28 32.2599 22.76 32.2599 24.44C32.2599 26.12 31.3999 27.62 29.9399 28.46Z" fill="#FCFCFD"/>
</svg>
